<?xml version="1.0" encoding="UTF-8"?>
<svg xmlns="http://www.w3.org/2000/svg" xmlns:xlink="http://www.w3.org/1999/xlink" width="50px" height="39px" viewBox="0 0 49 39" version="1.1">
<g id="surface1">
<path style=" stroke:none;fill-rule:nonzero;fill:rgb(0%,0%,0%);fill-opacity:1;" d="M 26.683594 16.246094 L 26.277344 16.246094 L 25.902344 14.269531 C 26.011719 14.210938 26.089844 14.097656 26.089844 13.964844 L 26.089844 12.203125 L 22.878906 12.203125 L 22.878906 13.964844 C 22.878906 14.09375 22.953125 14.203125 23.054688 14.261719 L 22.601562 16.246094 L 22.199219 16.246094 C 21.25 16.246094 20.476562 17.027344 20.476562 17.996094 C 20.476562 18.1875 20.632812 18.34375 20.820312 18.34375 L 22.890625 18.34375 C 23.082031 18.34375 23.234375 18.1875 23.234375 17.996094 L 23.234375 16.59375 C 23.234375 16.589844 23.234375 16.585938 23.230469 16.578125 L 23.75 14.3125 L 25.207031 14.3125 L 25.648438 16.628906 L 25.648438 17.996094 C 25.648438 18.1875 25.804688 18.34375 25.996094 18.34375 L 28.066406 18.34375 C 28.253906 18.34375 28.410156 18.1875 28.410156 17.996094 C 28.410156 17.027344 27.636719 16.246094 26.683594 16.246094 Z M 26.683594 16.246094 "/>
<path style=" stroke:none;fill-rule:nonzero;fill:rgb(0%,0%,0%);fill-opacity:1;" d="M 29.109375 13.554688 L 29.109375 11.515625 C 29.109375 10.703125 28.457031 10.035156 27.652344 10.035156 L 27.265625 10.035156 C 27.105469 9.664062 26.738281 9.402344 26.316406 9.402344 L 25.644531 9.402344 L 25.644531 8.503906 L 28.765625 8.503906 C 28.957031 8.503906 29.109375 8.347656 29.109375 8.152344 L 29.109375 1.953125 C 29.109375 1.761719 28.957031 1.605469 28.765625 1.605469 L 20.457031 1.605469 C 20.265625 1.605469 20.109375 1.761719 20.109375 1.953125 L 20.109375 8.152344 C 20.109375 8.347656 20.265625 8.503906 20.457031 8.503906 L 23.578125 8.503906 L 23.578125 9.402344 L 22.65625 9.402344 C 22.230469 9.402344 21.867188 9.664062 21.707031 10.035156 L 21.566406 10.035156 C 20.761719 10.035156 20.109375 10.703125 20.109375 11.515625 L 20.109375 13.550781 C 19.71875 13.695312 19.441406 14.070312 19.441406 14.515625 C 19.441406 15.082031 19.898438 15.542969 20.457031 15.542969 C 21.015625 15.542969 21.46875 15.082031 21.46875 14.515625 C 21.46875 14.070312 21.191406 13.695312 20.800781 13.550781 L 20.800781 11.515625 C 20.800781 11.085938 21.144531 10.738281 21.566406 10.738281 L 21.664062 10.738281 C 21.785156 11.175781 22.179688 11.503906 22.65625 11.503906 L 24.269531 11.503906 L 24.269531 9.402344 L 24.265625 9.402344 L 24.265625 8.503906 L 24.957031 8.503906 L 24.957031 9.753906 C 24.957031 9.761719 24.960938 9.765625 24.960938 9.773438 L 24.960938 11.503906 L 26.316406 11.503906 C 26.789062 11.503906 27.183594 11.175781 27.308594 10.738281 L 27.652344 10.738281 C 28.078125 10.738281 28.417969 11.085938 28.417969 11.515625 L 28.417969 13.546875 C 28.023438 13.6875 27.742188 14.066406 27.742188 14.515625 C 27.742188 15.082031 28.195312 15.542969 28.753906 15.542969 C 29.3125 15.542969 29.769531 15.082031 29.769531 14.515625 C 29.769531 14.074219 29.496094 13.699219 29.109375 13.554688 Z M 25.304688 4.011719 C 25.304688 3.429688 25.765625 2.960938 26.339844 2.960938 C 26.910156 2.960938 27.375 3.429688 27.375 4.011719 L 27.375 6.097656 C 27.375 6.675781 26.910156 7.144531 26.339844 7.144531 C 25.765625 7.144531 25.304688 6.675781 25.304688 6.097656 Z M 21.855469 6.097656 L 21.855469 4.011719 C 21.855469 3.429688 22.316406 2.960938 22.890625 2.960938 C 23.460938 2.960938 23.925781 3.429688 23.925781 4.011719 L 23.925781 6.097656 C 23.925781 6.675781 23.460938 7.144531 22.890625 7.144531 C 22.316406 7.144531 21.855469 6.675781 21.855469 6.097656 Z M 21.855469 6.097656 "/>
<path style=" stroke:none;fill-rule:nonzero;fill:rgb(0%,0%,0%);fill-opacity:1;" d="M 4.824219 23.324219 L 6.523438 23.324219 L 3.722656 28.390625 L 2.113281 28.390625 L 1.582031 23.324219 L 3.316406 23.324219 L 3.527344 25.761719 C 3.972656 24.960938 4.375 24.128906 4.824219 23.324219 Z M 8.535156 23.324219 L 7.378906 28.398438 L 5.691406 28.398438 L 6.84375 23.324219 Z M 10.550781 26.195312 L 10.503906 26.042969 L 10.472656 26.195312 L 9.96875 28.414062 L 8.382812 28.414062 L 9.539062 23.335938 L 11.390625 23.335938 L 11.9375 25.132812 L 12.347656 23.335938 L 13.9375 23.335938 L 12.785156 28.414062 L 11.222656 28.414062 Z M 15.832031 26.195312 L 15.785156 26.042969 L 15.75 26.195312 L 15.246094 28.414062 L 13.664062 28.414062 L 14.816406 23.335938 L 16.667969 23.335938 L 17.214844 25.132812 L 17.625 23.335938 L 19.214844 23.335938 L 18.0625 28.414062 L 16.5 28.414062 Z M 21.8125 23.324219 L 20.660156 28.398438 L 18.96875 28.398438 L 20.121094 23.324219 Z M 25.234375 28.398438 L 21.644531 28.398438 L 22.796875 23.324219 L 26.386719 23.324219 L 26.09375 24.605469 L 24.183594 24.605469 L 24.085938 25.039062 L 25.84375 25.039062 L 25.554688 26.320312 L 23.796875 26.320312 L 23.617188 27.113281 L 25.527344 27.113281 Z M 29.664062 26.253906 L 30.796875 28.390625 L 28.796875 28.390625 L 27.96875 26.746094 L 27.597656 28.390625 L 25.921875 28.390625 L 27.0625 23.324219 C 27.640625 23.324219 28.6875 23.261719 29.515625 23.382812 C 30.242188 23.484375 30.941406 23.765625 30.820312 24.652344 C 30.738281 25.285156 30.1875 25.9375 29.664062 26.253906 Z M 28.457031 24.570312 L 28.261719 25.449219 C 29.058594 25.449219 29.515625 24.570312 28.457031 24.570312 Z M 32.023438 28.40625 L 30.328125 28.40625 L 33.125 23.320312 L 34.800781 23.320312 L 35.277344 28.40625 L 33.554688 28.40625 L 33.484375 27.445312 L 32.53125 27.445312 C 32.351562 27.761719 32.199219 28.089844 32.023438 28.40625 Z M 32.976562 26.253906 L 33.441406 26.253906 L 33.457031 25.042969 Z M 38.476562 23.324219 L 37.324219 28.398438 L 35.632812 28.398438 L 36.785156 23.324219 Z M 38.132812 28.027344 L 38.449219 26.621094 L 38.960938 26.621094 C 39.03125 27.347656 40.632812 27.652344 40.792969 26.941406 C 40.875 26.578125 39.617188 26.480469 39.203125 26.152344 C 38.792969 25.828125 38.75 25.382812 38.859375 24.90625 C 39.261719 23.105469 41.675781 22.929688 43.066406 23.640625 L 42.757812 25.007812 L 42.238281 25.007812 C 42.269531 24.492188 40.738281 24.144531 40.597656 24.761719 C 40.492188 25.238281 42.050781 25.097656 42.476562 25.855469 C 42.890625 26.605469 42.242188 27.589844 41.648438 28.003906 C 40.601562 28.703125 39.210938 28.582031 38.132812 28.027344 Z M 46.265625 28.398438 L 42.675781 28.398438 L 43.828125 23.324219 L 47.417969 23.324219 L 47.125 24.605469 L 45.214844 24.605469 L 45.117188 25.039062 L 46.875 25.039062 L 46.585938 26.320312 L 44.828125 26.320312 L 44.648438 27.113281 L 46.558594 27.113281 Z M 46.265625 28.398438 "/>
<path style=" stroke:none;fill-rule:nonzero;fill:rgb(0%,0%,0%);fill-opacity:1;" d="M 15.878906 34.492188 C 16.269531 34.773438 16.503906 35.191406 16.503906 35.679688 C 16.503906 36.621094 15.648438 37.335938 14.753906 37.335938 L 11.855469 37.335938 L 11.855469 31.796875 L 14.574219 31.796875 C 15.289062 31.796875 15.878906 32.183594 16.191406 32.828125 C 16.28125 33.035156 16.324219 33.242188 16.324219 33.460938 C 16.324219 33.867188 16.164062 34.203125 15.878906 34.492188 Z M 13.191406 33.054688 L 13.191406 33.941406 L 14.574219 33.941406 C 14.808594 33.941406 14.984375 33.714844 14.984375 33.488281 C 14.984375 33.253906 14.816406 33.054688 14.574219 33.054688 Z M 13.191406 35.199219 L 13.191406 36.078125 L 14.753906 36.078125 C 14.996094 36.078125 15.164062 35.878906 15.164062 35.640625 C 15.164062 35.523438 15.121094 35.417969 15.039062 35.324219 C 14.960938 35.242188 14.863281 35.199219 14.753906 35.199219 Z M 22.714844 36.078125 L 22.714844 37.335938 L 18.65625 37.335938 L 18.65625 31.796875 L 19.992188 31.796875 L 19.992188 36.078125 Z M 27.285156 36.121094 C 28.257812 36.121094 28.753906 35.488281 28.753906 34.566406 C 28.753906 33.585938 28.21875 33.007812 27.285156 33.007812 C 26.300781 33.007812 25.8125 33.640625 25.8125 34.566406 C 25.8125 35.523438 26.355469 36.121094 27.285156 36.121094 Z M 27.285156 37.378906 C 25.605469 37.378906 24.472656 36.222656 24.472656 34.566406 C 24.472656 32.855469 25.660156 31.75 27.285156 31.75 C 28.96875 31.75 30.09375 32.898438 30.09375 34.566406 C 30.09375 36.285156 28.917969 37.378906 27.285156 37.378906 Z M 37.144531 33.941406 L 37.144531 37.019531 C 36.511719 37.261719 35.714844 37.398438 35.039062 37.398438 C 33.296875 37.398438 32.128906 36.339844 32.128906 34.59375 C 32.128906 32.683594 33.53125 31.75 35.242188 31.75 C 35.359375 31.75 35.484375 31.75 35.628906 31.757812 C 35.761719 31.769531 35.902344 31.785156 36.054688 31.796875 C 36.332031 31.832031 36.609375 31.867188 36.875 31.949219 L 36.875 33.335938 C 36.777344 33.289062 36.671875 33.253906 36.546875 33.214844 C 36.414062 33.1875 36.277344 33.160156 36.136719 33.136719 C 35.851562 33.082031 35.546875 33.0625 35.253906 33.0625 C 34.121094 33.0625 33.46875 33.414062 33.46875 34.59375 C 33.46875 35.742188 34.066406 36.085938 35.082031 36.085938 C 35.191406 36.085938 35.304688 36.078125 35.429688 36.066406 C 35.546875 36.058594 35.671875 36.050781 35.804688 36.039062 L 35.804688 35.199219 L 34.644531 35.199219 L 34.644531 33.941406 Z M 37.144531 33.941406 "/>
</g>
</svg>
